Genre:Crime | Drama | Horror
Language:English
IMDb:http://www.imdb.com/title/tt1714208/
Source:720p.Bluray.X264-7SinS Thanks!

Format : MPEG-4
Format profile : Base Media
Codec ID : isom
File size : 2.40 GiB
Duration : 1h 42mn
Overall bit rate : 3 349 Kbps

Video
ID : 1
Format : AVC
Format/Info : Advanced Video Codec
Format profile : High@L4.1
Format settings, CABAC : Yes
Format settings, ReFrames : 3 frames
Codec ID : avc1
Codec ID/Info : Advanced Video Coding
Duration : 1h 42mn
Bit rate mode : Variable
Bit rate : 3 000 Kbps
Maximum bit rate : 20.9 Mbps
Width : 1 280 pixels
Height : 720 pixels
Display aspect ratio : 16:9
Frame rate mode : Constant
Frame rate : 23.976 fps
Color space : YUV
Chroma subsampling : 4:2:0
Bit depth : 8 bits
Scan type : Progressive
Bits/(Pixel*Frame) : 0.136
Stream size : 2.15 GiB (89%)
Writing library : x264

Audio
ID : 2
Format : AAC
Format/Info : Advanced Audio Codec
Format version : Version 4
Format profile : LC
Format settings, SBR : No
Codec ID : 40
Duration : 1h 42mn
Bit rate mode : Variable
Bit rate : 352.8 Kbps
Maximum bit rate : 540 Kbps
Channel(s) : 6 channels
Channel positions : Front: L C R, Side: L R, LFE
Sampling rate : 48.0 KHz
Stream size : 257 MiB (10%)


Plot:
When a successful country lawyer captures and attempts to "civilize" the last remaining member of a violent clan that has roamed the Northeast coast for decades, he puts the lives of his family in jeopardy.
 
http://www.pix2links.com/image/SzrP9.png
 
http://www.pix2links.com/image/faU8b.png
 
http://www.pix2links.com/image/ATs5.png
 
http://www.pix2links.com/image/v23Dp.png